<?xml version="1.0" encoding="UTF-8"?>
<!DOCTYPE svg PUBLIC "-//W3C//DTD SVG 1.1//EN" "http://www.w3.org/Graphics/SVG/1.1/DTD/svg11.dtd">
<svg xmlns="http://www.w3.org/2000/svg" version="1.1" width="800px" height="800px" style="shape-rendering:geometricPrecision; text-rendering:geometricPrecision; image-rendering:optimizeQuality; fill-rule:evenodd; clip-rule:evenodd" xmlns:xlink="http://www.w3.org/1999/xlink">
<g><path style="opacity:0.997" fill="#fe1d00" d="M 64.5,445.5 C 61.4625,448.06 59.6292,451.393 59,455.5C 46.3411,517.987 66.1745,567.153 118.5,603C 155.141,623.185 193.475,627.018 233.5,614.5C 229.245,598.52 232.412,584.186 243,571.5C 261.542,552.465 283.376,538.299 308.5,529C 323.273,523.075 338.273,517.742 353.5,513C 394.027,503.428 434.36,493.095 474.5,482C 475.942,481.623 476.942,480.79 477.5,479.5C 591.089,445.03 698.422,397.03 799.5,335.5C 799.5,337.5 799.5,339.5 799.5,341.5C 765.94,485.895 682.274,590.062 548.5,654C 509.079,672.523 467.745,684.523 424.5,690C 373.758,696.154 325.425,688.154 279.5,666C 278.663,664.989 278.33,663.822 278.5,662.5C 379.251,634.53 475.584,595.696 567.5,546C 625.498,514.394 677.665,474.894 724,427.5C 731.379,419.123 738.379,410.456 745,401.5C 745.667,400.833 745.667,400.167 745,399.5C 719.618,425.889 692.118,449.723 662.5,471C 572.103,535.711 474.437,587.711 369.5,627C 317.524,646.744 263.857,659.078 208.5,664C 153.686,668.055 104.686,653.389 61.5,620C 14.5894,578.619 -4.24391,526.786 5,464.5C 18.1583,399.008 55.325,352.841 116.5,326C 132.144,319.341 148.144,313.674 164.5,309C 172.721,298.446 180.554,287.613 188,276.5C 237.529,217.659 301.029,187.659 378.5,186.5C 456.58,187.529 519.413,218.529 567,279.5C 573.169,288.5 578.836,297.834 584,307.5C 586.365,310.869 589.532,313.036 593.5,314C 622.389,315.044 648.389,324.044 671.5,341C 674.667,344.167 677.833,347.333 681,350.5C 681.483,351.448 681.649,352.448 681.5,353.5C 651.049,343.283 620.049,341.116 588.5,347C 579.459,349.736 570.459,352.57 561.5,355.5C 555.17,355.007 550.003,352.34 546,347.5C 496.856,258.424 422.356,224.924 322.5,247C 267.847,265.653 228.347,301.153 204,353.5C 200.842,359.327 196.008,362.827 189.5,364C 161.866,362.241 136.533,368.907 113.5,384C 97.2098,396.621 83.3764,411.454 72,428.5C 68.9323,433.964 66.4323,439.631 64.5,445.5 Z"/></g>
<g><path style="opacity:0.008" fill="#00a3da" d="M 70.5,444.5 C 70.8966,443.475 71.5632,443.308 72.5,444C 71.9056,444.464 71.2389,444.631 70.5,444.5 Z"/></g>
<g><path style="opacity:0.02" fill="#4299d2" d="M 477.5,479.5 C 476.942,480.79 475.942,481.623 474.5,482C 434.36,493.095 394.027,503.428 353.5,513C 338.273,517.742 323.273,523.075 308.5,529C 283.376,538.299 261.542,552.465 243,571.5C 232.412,584.186 229.245,598.52 233.5,614.5C 193.475,627.018 155.141,623.185 118.5,603C 66.1745,567.153 46.3411,517.987 59,455.5C 59.6292,451.393 61.4625,448.06 64.5,445.5C 65.3635,444.537 66.0302,444.537 66.5,445.5C 63.6646,447.828 61.8313,450.828 61,454.5C 48.3127,512.616 65.146,559.783 111.5,596C 139.699,615.515 171.032,622.848 205.5,618C 214.778,617.347 223.445,615.181 231.5,611.5C 228.865,600.074 230.365,589.074 236,578.5C 238.382,575.16 240.716,571.827 243,568.5C 248.494,564.005 253.661,559.172 258.5,554C 276.265,542.449 294.932,532.449 314.5,524C 348.402,512.028 382.902,502.528 418,495.5C 437.33,490.709 456.497,485.376 475.5,479.5C 476.802,471.614 477.468,471.614 477.5,479.5 Z"/></g>
</svg>
