<?xml version="1.0" encoding="UTF-8"?>
<!DOCTYPE svg PUBLIC "-//W3C//DTD SVG 1.1//EN" "http://www.w3.org/Graphics/SVG/1.1/DTD/svg11.dtd">
<svg xmlns="http://www.w3.org/2000/svg" version="1.1" width="800px" height="800px" style="shape-rendering:geometricPrecision; text-rendering:geometricPrecision; image-rendering:optimizeQuality; fill-rule:evenodd; clip-rule:evenodd" xmlns:xlink="http://www.w3.org/1999/xlink">
<g><path style="opacity:0.986" fill="#fe1d00" d="M 64.5,445.5 C 61.4625,448.06 59.6292,451.393 59,455.5C 46.3411,517.987 66.1745,567.153 118.5,603C 155.141,623.185 193.475,627.018 233.5,614.5C 229.245,598.52 232.412,584.186 243,571.5C 261.542,552.465 283.376,538.299 308.5,529C 323.273,523.075 338.273,517.742 353.5,513C 393.961,503.2 434.294,492.867 474.5,482C 475.942,481.623 476.942,480.79 477.5,479.5C 591.089,445.03 698.422,397.03 799.5,335.5C 799.5,337.5 799.5,339.5 799.5,341.5C 765.94,485.895 682.274,590.062 548.5,654C 509.079,672.523 467.745,684.523 424.5,690C 373.758,696.154 325.425,688.154 279.5,666C 278.663,664.989 278.33,663.822 278.5,662.5C 379.251,634.53 475.584,595.696 567.5,546C 625.498,514.394 677.665,474.894 724,427.5C 731.379,419.123 738.379,410.456 745,401.5C 745.667,400.833 745.667,400.167 745,399.5C 719.618,425.889 692.118,449.723 662.5,471C 572.103,535.711 474.437,587.711 369.5,627C 317.524,646.744 263.857,659.078 208.5,664C 153.686,668.055 104.686,653.389 61.5,620C 14.5894,578.619 -4.24391,526.786 5,464.5C 18.1583,399.008 55.325,352.841 116.5,326C 132.144,319.341 148.144,313.674 164.5,309C 172.721,298.446 180.554,287.613 188,276.5C 237.529,217.659 301.029,187.659 378.5,186.5C 456.58,187.529 519.413,218.529 567,279.5C 573.169,288.5 578.836,297.834 584,307.5C 586.365,310.869 589.532,313.036 593.5,314C 622.389,315.044 648.389,324.044 671.5,341C 674.667,344.167 677.833,347.333 681,350.5C 681.483,351.448 681.649,352.448 681.5,353.5C 651.049,343.283 620.049,341.116 588.5,347C 579.459,349.736 570.459,352.57 561.5,355.5C 555.17,355.007 550.003,352.34 546,347.5C 496.856,258.424 422.356,224.924 322.5,247C 267.847,265.653 228.347,301.153 204,353.5C 200.842,359.327 196.008,362.827 189.5,364C 161.866,362.241 136.533,368.907 113.5,384C 97.2098,396.621 83.3764,411.454 72,428.5C 68.9323,433.964 66.4323,439.631 64.5,445.5 Z"/></g>
<g><path style="opacity:1" fill="#04a0e6" d="M 477.5,479.5 C 476.942,480.79 475.942,481.623 474.5,482C 434.294,492.867 393.961,503.2 353.5,513C 338.273,517.742 323.273,523.075 308.5,529C 283.376,538.299 261.542,552.465 243,571.5C 232.412,584.186 229.245,598.52 233.5,614.5C 193.475,627.018 155.141,623.185 118.5,603C 66.1745,567.153 46.3411,517.987 59,455.5C 59.6292,451.393 61.4625,448.06 64.5,445.5C 80.6164,441.362 96.9497,440.529 113.5,443C 151.192,450.506 188.858,458.173 226.5,466C 256.556,472.049 286.889,475.882 317.5,477.5C 340.879,477.992 362.879,472.826 383.5,462C 400.057,451.776 410.89,437.276 416,418.5C 417.605,396.873 408.105,382.707 387.5,376C 374.505,373.411 365.672,378.245 361,390.5C 356.948,401.69 356.781,412.857 360.5,424C 359.5,424.667 358.5,424.667 357.5,424C 342.799,410.224 336.632,393.39 339,373.5C 345.882,354.635 359.382,343.802 379.5,341C 422.857,339.009 452.69,358.176 469,398.5C 477.769,424.857 480.602,451.857 477.5,479.5 Z"/></g>
</svg>
