<?xml version="1.0" encoding="UTF-8"?>
<!DOCTYPE svg PUBLIC "-//W3C//DTD SVG 1.1//EN" "http://www.w3.org/Graphics/SVG/1.1/DTD/svg11.dtd">
<svg xmlns="http://www.w3.org/2000/svg" version="1.1" width="720px" height="589px" style="shape-rendering:geometricPrecision; text-rendering:geometricPrecision; image-rendering:optimizeQuality; fill-rule:evenodd; clip-rule:evenodd" xmlns:xlink="http://www.w3.org/1999/xlink">
<g><path style="opacity:1" fill="#cd8be2" d="M 415.5,-0.5 C 490.167,-0.5 564.833,-0.5 639.5,-0.5C 641.696,0.811946 644.03,1.97861 646.5,3C 656.481,3.82955 665.481,7.16288 673.5,13C 675.473,13.4955 677.473,13.6621 679.5,13.5C 679.833,13.5 680.167,13.5 680.5,13.5C 680.5,14.5 680.5,15.5 680.5,16.5C 681.5,16.5 682.5,16.5 683.5,16.5C 683.297,18.3904 683.963,19.8904 685.5,21C 692.648,23.4182 697.482,28.2515 700,35.5C 703.59,39.6103 707.09,43.6103 710.5,47.5C 710.652,51.2617 711.319,54.9284 712.5,58.5C 711.384,58.402 710.384,58.902 709.5,60C 708.464,63.1208 708.297,66.2875 709,69.5C 709.333,67.1667 709.667,64.8333 710,62.5C 711.016,63.6341 711.683,63.3008 712,61.5C 714.123,66.5513 715.29,71.8847 715.5,77.5C 714.149,79.4115 713.482,81.5782 713.5,84C 714.517,87.2109 714.517,90.3776 713.5,93.5C 715.301,96.5354 715.968,99.8687 715.5,103.5C 714.5,103.5 713.5,103.5 712.5,103.5C 712.5,100.833 712.5,98.1667 712.5,95.5C 711.5,95.5 710.5,95.5 709.5,95.5C 709.462,99.3625 709.795,103.196 710.5,107C 710.496,110.337 708.83,111.837 705.5,111.5C 706.114,116.603 707.448,116.77 709.5,112C 710.448,111.517 711.448,111.351 712.5,111.5C 711.373,117.066 709.706,122.399 707.5,127.5C 704.081,128.042 702.414,130.042 702.5,133.5C 700.418,133.472 698.584,134.139 697,135.5C 695.663,139.702 693.497,143.369 690.5,146.5C 688.43,148.642 685.93,149.976 683,150.5C 682.51,151.793 682.343,153.127 682.5,154.5C 674.45,160.353 665.45,164.353 655.5,166.5C 652.161,166.89 648.827,167.39 645.5,168C 622.16,168.167 598.826,168.667 575.5,169.5C 571.253,169.442 568.92,171.442 568.5,175.5C 566.508,175.328 564.842,175.995 563.5,177.5C 561.325,181.027 559.992,184.86 559.5,189C 560.325,253.816 560.825,318.649 561,383.5C 562.327,387.49 563.66,391.49 565,395.5C 565.671,396.252 566.504,396.586 567.5,396.5C 567.433,398.401 567.767,400.234 568.5,402C 572.488,404.829 575.488,407.996 577.5,411.5C 575.49,412.065 573.824,413.065 572.5,414.5C 578.88,414.028 585.213,414.694 591.5,416.5C 592.347,417.966 593.68,418.8 595.5,419C 605.179,420.112 614.846,421.445 624.5,423C 626.332,423.748 627.999,424.748 629.5,426C 635.718,426.245 641.718,427.411 647.5,429.5C 649.687,430.758 652.02,431.758 654.5,432.5C 657.027,434.605 659.36,436.939 661.5,439.5C 663.549,442.882 666.215,445.549 669.5,447.5C 671.167,448.833 672.833,450.167 674.5,451.5C 674.343,452.873 674.51,454.207 675,455.5C 677.02,457.551 678.52,459.884 679.5,462.5C 682.655,471.143 685.155,479.809 687,488.5C 687.667,489.167 688.333,489.833 689,490.5C 689.923,501.92 689.423,513.253 687.5,524.5C 687.595,527.692 686.929,530.692 685.5,533.5C 683.695,534.237 682.029,535.237 680.5,536.5C 679.571,532.684 677.405,531.35 674,532.5C 673.333,535.167 673.333,537.833 674,540.5C 677.889,541.536 678.556,544.202 676,548.5C 672.323,550.857 670.489,554.19 670.5,558.5C 670.5,559.167 670.167,559.5 669.5,559.5C 664.61,562.05 660.277,565.384 656.5,569.5C 655.252,568.96 654.085,568.293 653,567.5C 651.167,569.333 649.333,571.167 647.5,573C 647.957,573.414 648.291,573.914 648.5,574.5C 638.848,579.997 628.514,583.497 617.5,585C 616.244,585.417 615.577,586.25 615.5,587.5C 614.508,587.328 613.842,587.662 613.5,588.5C 576.833,588.5 540.167,588.5 503.5,588.5C 502.64,586.386 500.973,585.22 498.5,585C 487.423,584.229 476.756,581.895 466.5,578C 462.555,576.36 458.888,574.36 455.5,572C 451.553,570.516 447.553,569.35 443.5,568.5C 442.752,566.668 441.752,565.001 440.5,563.5C 439.645,562.469 438.978,561.303 438.5,560C 439.264,557.251 439.597,554.585 439.5,552C 438.17,521.38 437.504,490.547 437.5,459.5C 438.937,308.841 439.937,158.175 440.5,7.5C 442.444,6.8108 444.444,6.3108 446.5,6C 444.233,5.72377 441.9,5.0571 439.5,4C 442.167,3.33333 444.833,2.66667 447.5,2C 441.545,0.928347 435.545,0.428347 429.5,0.5C 424.637,0.819456 419.97,0.486123 415.5,-0.5 Z"/></g>
<g><path style="opacity:0.008" fill="#f8f0fe" d="M 65.5,-0.5 C 67.8333,-0.5 70.1667,-0.5 72.5,-0.5C 69.7814,0.913011 66.7814,1.57968 63.5,1.5C 64.1667,0.833333 64.8333,0.166667 65.5,-0.5 Z"/></g>
<g><path style="opacity:1" fill="#6547c4" d="M 93.5,0.5 C 97.6472,1.32474 101.981,1.82474 106.5,2C 102.789,2.17472 99.1224,2.67472 95.5,3.5C 94.894,31.0851 95.5607,59.0851 97.5,87.5C 97.4377,90.6128 96.7711,93.4461 95.5,96C 95.5,117.333 95.5,138.667 95.5,160C 97.6234,161.194 99.9568,161.86 102.5,162C 98.3837,162.325 94.3837,163.159 90.5,164.5C 92.4233,165.308 94.4233,165.808 96.5,166C 89.6915,166.883 83.0248,167.717 76.5,168.5C 72.6754,167.019 68.6754,166.185 64.5,166C 65.5981,165.23 65.5981,164.397 64.5,163.5C 68.1817,163.665 71.8484,163.499 75.5,163C 78,162.167 78.1667,161 76,159.5C 74.3116,161.848 72.4783,162.015 70.5,160C 71.7932,159.51 73.1266,159.343 74.5,159.5C 74.5,111.5 74.5,63.5 74.5,15.5C 72.8212,15.7148 71.8212,15.0481 71.5,13.5C 67.1284,12.4081 63.1284,10.2415 59.5,7C 57.8659,6.50649 56.1992,6.33982 54.5,6.5C 54.5,7.5 54.5,8.5 54.5,9.5C 49.8897,9.59585 49.5564,10.5959 53.5,12.5C 50.8332,13.6345 48.1666,14.6345 45.5,15.5C 45.9919,25.0096 41.6586,29.3429 32.5,28.5C 31.0499,27.1502 30.3832,25.4835 30.5,23.5C 29.1779,23.33 28.0113,23.6634 27,24.5C 26.5357,23.9056 26.369,23.2389 26.5,22.5C 36.9044,12.4612 49.2378,5.79453 63.5,2.5C 73.425,1.01406 83.425,0.347389 93.5,0.5 Z"/></g>
<g><path style="opacity:1" fill="#7856cb" d="M 72.5,-0.5 C 103.5,-0.5 134.5,-0.5 165.5,-0.5C 166.589,1.11709 168.256,1.95042 170.5,2C 164.011,2.44738 164.011,3.44738 170.5,5C 167.456,5.35886 167.122,6.02552 169.5,7C 168.967,19.1332 168.967,31.4666 169.5,44C 169.333,45.1667 169.167,46.3333 169,47.5C 166.605,46.2018 165.438,47.0351 165.5,50C 165.934,52.6342 166.767,55.1342 168,57.5C 171.034,54.4858 172.201,50.8191 171.5,46.5C 172.5,46.5 173.5,46.5 174.5,46.5C 174.34,44.8008 174.506,43.1341 175,41.5C 181.058,33.8684 187.224,26.3684 193.5,19C 197.158,16.7811 200.491,14.1144 203.5,11C 212.604,7.10663 221.604,3.27329 230.5,-0.5C 233.5,-0.5 236.5,-0.5 239.5,-0.5C 198.189,8.31418 174.022,33.6475 167,75.5C 166.5,106.498 166.333,137.498 166.5,168.5C 162.167,168.5 157.833,168.5 153.5,168.5C 145.677,167.671 137.677,167.171 129.5,167C 126.808,166.257 124.475,165.09 122.5,163.5C 130.507,163.666 138.507,163.5 146.5,163C 147.357,162.311 148.023,161.478 148.5,160.5C 146.017,153.767 146.017,146.934 148.5,140C 147.967,95.4667 147.967,51.1333 148.5,7C 141.833,6.33333 141.833,5.66667 148.5,5C 146.913,4.13759 145.246,3.47093 143.5,3C 146.167,2.66667 148.833,2.33333 151.5,2C 140.867,0.804541 130.2,0.304541 119.5,0.5C 110.833,0.5 102.167,0.5 93.5,0.5C 83.425,0.347389 73.425,1.01406 63.5,2.5C 63.5,2.16667 63.5,1.83333 63.5,1.5C 66.7814,1.57968 69.7814,0.913011 72.5,-0.5 Z"/></g>
<g><path style="opacity:1" fill="#815acd" d="M 165.5,-0.5 C 187.167,-0.5 208.833,-0.5 230.5,-0.5C 221.604,3.27329 212.604,7.10663 203.5,11C 200.491,14.1144 197.158,16.7811 193.5,19C 187.224,26.3684 181.058,33.8684 175,41.5C 174.506,43.1341 174.34,44.8008 174.5,46.5C 173.5,46.5 172.5,46.5 171.5,46.5C 172.201,50.8191 171.034,54.4858 168,57.5C 166.767,55.1342 165.934,52.6342 165.5,50C 165.438,47.0351 166.605,46.2018 169,47.5C 169.167,46.3333 169.333,45.1667 169.5,44C 168.967,31.4666 168.967,19.1332 169.5,7C 167.122,6.02552 167.456,5.35886 170.5,5C 164.011,3.44738 164.011,2.44738 170.5,2C 168.256,1.95042 166.589,1.11709 165.5,-0.5 Z"/></g>
<g><path style="opacity:1" fill="#a172da" d="M 263.5,-0.5 C 275.5,-0.5 287.5,-0.5 299.5,-0.5C 300.307,2.08721 301.641,2.58721 303.5,1C 313.203,0.255685 322.87,0.589018 332.5,2C 329.5,2.33333 326.5,2.66667 323.5,3C 325.833,3.33333 328.167,3.66667 330.5,4C 320.036,5.77295 320.369,6.77295 331.5,7C 329.19,7.49665 326.857,7.66331 324.5,7.5C 324.427,15.2478 325.094,22.9145 326.5,30.5C 325.448,30.3505 324.448,30.5172 323.5,31C 323.693,32.6453 323.86,34.4787 324,36.5C 328.359,40.5586 331.025,45.5586 332,51.5C 332.333,51.8333 332.667,52.1667 333,52.5C 333.815,50.3772 334.815,48.3772 336,46.5C 336.778,49.275 336.278,51.775 334.5,54C 335.867,62.0311 337.867,69.8644 340.5,77.5C 338.532,107.737 337.865,138.07 338.5,168.5C 337.833,168.5 337.5,168.833 337.5,169.5C 337.167,169.5 336.833,169.5 336.5,169.5C 336.667,136.832 336.5,104.165 336,71.5C 330.621,41.9158 314.454,20.4158 287.5,7C 279.557,3.92399 271.557,1.42399 263.5,-0.5 Z"/></g>
<g><path style="opacity:1" fill="#b179da" d="M 299.5,-0.5 C 311.833,-0.5 324.167,-0.5 336.5,-0.5C 349.382,0.0775687 362.382,0.910902 375.5,2C 367.5,2.66667 367.5,3.33333 375.5,4C 372.956,5.09197 370.289,5.75864 367.5,6C 370.167,6.33333 372.833,6.66667 375.5,7C 374.167,7.33333 372.833,7.66667 371.5,8C 372.431,26.4162 372.765,44.9162 372.5,63.5C 370.833,63.5 369.167,63.5 367.5,63.5C 367.817,95.9877 368.151,127.654 368.5,158.5C 370.977,158.051 372.977,158.717 374.5,160.5C 366.602,162.114 366.602,163.114 374.5,163.5C 374.5,164.5 374.5,165.5 374.5,166.5C 371.572,166.565 368.905,167.232 366.5,168.5C 357.167,168.5 347.833,168.5 338.5,168.5C 337.865,138.07 338.532,107.737 340.5,77.5C 337.867,69.8644 335.867,62.0311 334.5,54C 336.278,51.775 336.778,49.275 336,46.5C 334.815,48.3772 333.815,50.3772 333,52.5C 332.667,52.1667 332.333,51.8333 332,51.5C 331.025,45.5586 328.359,40.5586 324,36.5C 323.86,34.4787 323.693,32.6453 323.5,31C 324.448,30.5172 325.448,30.3505 326.5,30.5C 325.094,22.9145 324.427,15.2478 324.5,7.5C 326.857,7.66331 329.19,7.49665 331.5,7C 320.369,6.77295 320.036,5.77295 330.5,4C 328.167,3.66667 325.833,3.33333 323.5,3C 326.5,2.66667 329.5,2.33333 332.5,2C 322.87,0.589018 313.203,0.255685 303.5,1C 301.641,2.58721 300.307,2.08721 299.5,-0.5 Z"/></g>
<g><path style="opacity:1" fill="#b77fdd" d="M 336.5,-0.5 C 348.5,-0.5 360.5,-0.5 372.5,-0.5C 379.313,0.491194 386.313,0.824527 393.5,0.5C 393.48,2.14297 394.147,3.4763 395.5,4.5C 393.51,61.3522 392.843,118.352 393.5,175.5C 395.346,175.222 396.68,175.889 397.5,177.5C 397.356,181.148 396.023,184.482 393.5,187.5C 392.41,181.955 389.41,177.955 384.5,175.5C 381.797,173.819 379.131,172.153 376.5,170.5C 373.663,168.598 370.329,167.931 366.5,168.5C 368.905,167.232 371.572,166.565 374.5,166.5C 374.5,165.5 374.5,164.5 374.5,163.5C 366.602,163.114 366.602,162.114 374.5,160.5C 372.977,158.717 370.977,158.051 368.5,158.5C 368.151,127.654 367.817,95.9877 367.5,63.5C 369.167,63.5 370.833,63.5 372.5,63.5C 372.765,44.9162 372.431,26.4162 371.5,8C 372.833,7.66667 374.167,7.33333 375.5,7C 372.833,6.66667 370.167,6.33333 367.5,6C 370.289,5.75864 372.956,5.09197 375.5,4C 367.5,3.33333 367.5,2.66667 375.5,2C 362.382,0.910902 349.382,0.0775687 336.5,-0.5 Z"/></g>
<g><path style="opacity:1" fill="#bd81de" d="M 372.5,-0.5 C 379.833,-0.5 387.167,-0.5 394.5,-0.5C 400.045,0.205399 405.712,1.03873 411.5,2C 407.148,2.41888 406.815,3.08555 410.5,4C 408.377,5.19367 406.043,5.86034 403.5,6C 405.833,6.33333 408.167,6.66667 410.5,7C 409.173,26.9496 408.506,47.1163 408.5,67.5C 408.268,215.915 407.268,364.248 405.5,512.5C 406.5,515.167 407.5,517.833 408.5,520.5C 408.333,521.167 408.167,521.833 408,522.5C 407.082,520.624 405.582,519.624 403.5,519.5C 398.655,506.481 394.988,493.148 392.5,479.5C 392.178,382.149 392.512,284.815 393.5,187.5C 396.023,184.482 397.356,181.148 397.5,177.5C 396.68,175.889 395.346,175.222 393.5,175.5C 392.843,118.352 393.51,61.3522 395.5,4.5C 394.147,3.4763 393.48,2.14297 393.5,0.5C 386.313,0.824527 379.313,0.491194 372.5,-0.5 Z"/></g>
<g><path style="opacity:1" fill="#c385df" d="M 394.5,-0.5 C 401.5,-0.5 408.5,-0.5 415.5,-0.5C 419.97,0.486123 424.637,0.819456 429.5,0.5C 429.918,1.22158 430.584,1.72158 431.5,2C 430.5,2.33333 429.5,2.66667 428.5,3C 430.833,3.33333 433.167,3.66667 435.5,4C 434.051,5.11702 432.384,5.78369 430.5,6C 431.925,7.71413 431.592,9.04746 429.5,10C 429.5,13.6667 429.5,17.3333 429.5,21C 432.167,22.6667 432.167,24.3333 429.5,26C 430.276,27.7698 430.11,29.6031 429,31.5C 428.5,167.5 428.333,303.5 428.5,439.5C 427.5,439.5 426.5,439.5 425.5,439.5C 425.667,470.835 425.5,502.168 425,533.5C 421.475,532.562 418.808,530.562 417,527.5C 416.365,528.966 415.531,530.3 414.5,531.5C 415.428,532.768 415.595,534.101 415,535.5C 413.349,533.79 411.516,532.456 409.5,531.5C 406.555,528.014 404.555,524.014 403.5,519.5C 405.582,519.624 407.082,520.624 408,522.5C 408.167,521.833 408.333,521.167 408.5,520.5C 407.5,517.833 406.5,515.167 405.5,512.5C 407.268,364.248 408.268,215.915 408.5,67.5C 408.506,47.1163 409.173,26.9496 410.5,7C 408.167,6.66667 405.833,6.33333 403.5,6C 406.043,5.86034 408.377,5.19367 410.5,4C 406.815,3.08555 407.148,2.41888 411.5,2C 405.712,1.03873 400.045,0.205399 394.5,-0.5 Z"/></g>
<g><path style="opacity:1" fill="#6b4cc7" d="M 93.5,0.5 C 102.167,0.5 110.833,0.5 119.5,0.5C 117.708,1.30912 115.708,1.80912 113.5,2C 115.399,6.1778 116.065,10.6778 115.5,15.5C 116.833,15.5 118.167,15.5 119.5,15.5C 119.832,26.1874 119.499,36.8541 118.5,47.5C 117.833,48.1667 117.167,48.8333 116.5,49.5C 114.962,54.6983 115.295,59.6983 117.5,64.5C 116.284,66.962 115.618,69.6287 115.5,72.5C 115.618,75.3713 116.284,78.038 117.5,80.5C 116.284,82.962 115.618,85.6287 115.5,88.5C 115.618,91.3713 116.284,94.038 117.5,96.5C 116.284,98.962 115.618,101.629 115.5,104.5C 115.618,107.371 116.284,110.038 117.5,112.5C 116.284,114.962 115.618,117.629 115.5,120.5C 115.618,123.371 116.284,126.038 117.5,128.5C 116.284,130.962 115.618,133.629 115.5,136.5C 115.618,139.371 116.284,142.038 117.5,144.5C 115.63,149.261 114.963,154.261 115.5,159.5C 117.833,159.5 120.167,159.5 122.5,159.5C 122.5,160.833 122.5,162.167 122.5,163.5C 124.475,165.09 126.808,166.257 129.5,167C 137.677,167.171 145.677,167.671 153.5,168.5C 127.833,168.5 102.167,168.5 76.5,168.5C 83.0248,167.717 89.6915,166.883 96.5,166C 94.4233,165.808 92.4233,165.308 90.5,164.5C 94.3837,163.159 98.3837,162.325 102.5,162C 99.9568,161.86 97.6234,161.194 95.5,160C 95.5,138.667 95.5,117.333 95.5,96C 96.7711,93.4461 97.4377,90.6128 97.5,87.5C 95.5607,59.0851 94.894,31.0851 95.5,3.5C 99.1224,2.67472 102.789,2.17472 106.5,2C 101.981,1.82474 97.6472,1.32474 93.5,0.5 Z"/></g>
<g><path style="opacity:1" fill="#7351c9" d="M 119.5,0.5 C 130.2,0.304541 140.867,0.804541 151.5,2C 148.833,2.33333 146.167,2.66667 143.5,3C 145.246,3.47093 146.913,4.13759 148.5,5C 141.833,5.66667 141.833,6.33333 148.5,7C 147.967,51.1333 147.967,95.4667 148.5,140C 146.017,146.934 146.017,153.767 148.5,160.5C 148.023,161.478 147.357,162.311 146.5,163C 138.507,163.5 130.507,163.666 122.5,163.5C 122.5,162.167 122.5,160.833 122.5,159.5C 120.167,159.5 117.833,159.5 115.5,159.5C 114.963,154.261 115.63,149.261 117.5,144.5C 116.284,142.038 115.618,139.371 115.5,136.5C 115.618,133.629 116.284,130.962 117.5,128.5C 116.284,126.038 115.618,123.371 115.5,120.5C 115.618,117.629 116.284,114.962 117.5,112.5C 116.284,110.038 115.618,107.371 115.5,104.5C 115.618,101.629 116.284,98.962 117.5,96.5C 116.284,94.038 115.618,91.3713 115.5,88.5C 115.618,85.6287 116.284,82.962 117.5,80.5C 116.284,78.038 115.618,75.3713 115.5,72.5C 115.618,69.6287 116.284,66.962 117.5,64.5C 115.295,59.6983 114.962,54.6983 116.5,49.5C 117.167,48.8333 117.833,48.1667 118.5,47.5C 119.499,36.8541 119.832,26.1874 119.5,15.5C 118.167,15.5 116.833,15.5 115.5,15.5C 116.065,10.6778 115.399,6.1778 113.5,2C 115.708,1.80912 117.708,1.30912 119.5,0.5 Z"/></g>
<g><path style="opacity:0.986" fill="#c696d7" d="M 639.5,-0.5 C 640.5,-0.5 641.5,-0.5 642.5,-0.5C 651.587,1.19181 660.587,3.69181 669.5,7C 673.411,8.44422 676.744,10.6109 679.5,13.5C 677.473,13.6621 675.473,13.4955 673.5,13C 665.481,7.16288 656.481,3.82955 646.5,3C 644.03,1.97861 641.696,0.811946 639.5,-0.5 Z"/></g>
<g><path style="opacity:1" fill="#242fb7" d="M 239.5,-0.5 C 247.5,-0.5 255.5,-0.5 263.5,-0.5C 271.557,1.42399 279.557,3.92399 287.5,7C 314.454,20.4158 330.621,41.9158 336,71.5C 336.5,104.165 336.667,136.832 336.5,169.5C 279.833,169.5 223.167,169.5 166.5,169.5C 166.5,169.167 166.5,168.833 166.5,168.5C 166.333,137.498 166.5,106.498 167,75.5C 174.022,33.6475 198.189,8.31418 239.5,-0.5 Z"/></g>
<g><path style="opacity:1" fill="#c788e0" d="M 429.5,0.5 C 435.545,0.428347 441.545,0.928347 447.5,2C 444.833,2.66667 442.167,3.33333 439.5,4C 441.9,5.0571 444.233,5.72377 446.5,6C 444.444,6.3108 442.444,6.8108 440.5,7.5C 439.937,158.175 438.937,308.841 437.5,459.5C 437.504,490.547 438.17,521.38 439.5,552C 439.597,554.585 439.264,557.251 438.5,560C 438.978,561.303 439.645,562.469 440.5,563.5C 435.163,561.316 430.83,557.816 427.5,553C 426.099,552.59 424.766,552.09 423.5,551.5C 421.518,547.854 418.851,544.854 415.5,542.5C 413.766,538.7 411.766,535.034 409.5,531.5C 411.516,532.456 413.349,533.79 415,535.5C 415.595,534.101 415.428,532.768 414.5,531.5C 415.531,530.3 416.365,528.966 417,527.5C 418.808,530.562 421.475,532.562 425,533.5C 425.5,502.168 425.667,470.835 425.5,439.5C 426.5,439.5 427.5,439.5 428.5,439.5C 428.333,303.5 428.5,167.5 429,31.5C 430.11,29.6031 430.276,27.7698 429.5,26C 432.167,24.3333 432.167,22.6667 429.5,21C 429.5,17.3333 429.5,13.6667 429.5,10C 431.592,9.04746 431.925,7.71413 430.5,6C 432.384,5.78369 434.051,5.11702 435.5,4C 433.167,3.66667 430.833,3.33333 428.5,3C 429.5,2.66667 430.5,2.33333 431.5,2C 430.584,1.72158 429.918,1.22158 429.5,0.5 Z"/></g>
<g><path style="opacity:0.018" fill="#fbeafd" d="M 642.5,-0.5 C 645.833,-0.5 649.167,-0.5 652.5,-0.5C 667.279,3.39019 680.613,10.2235 692.5,20C 696.451,23.7719 699.784,27.9386 702.5,32.5C 699.001,29.8338 696.001,26.6671 693.5,23C 689.569,19.2288 685.236,16.0621 680.5,13.5C 680.167,13.5 679.833,13.5 679.5,13.5C 676.744,10.6109 673.411,8.44422 669.5,7C 660.587,3.69181 651.587,1.19181 642.5,-0.5 Z"/></g>
<g><path style="opacity:1" fill="#5a40c2" d="M 71.5,13.5 C 65.6124,11.8715 59.9457,12.3715 54.5,15C 55.8215,25.6068 56.4882,36.4402 56.5,47.5C 55.7667,84.83 55.4334,122.163 55.5,159.5C 54.209,159.263 53.209,159.596 52.5,160.5C 49.8333,160.167 47.1667,159.833 44.5,159.5C 41.7563,157.262 39.0896,154.762 36.5,152C 35.2068,151.51 33.8734,151.343 32.5,151.5C 31.8333,151.5 31.5,151.167 31.5,150.5C 27.7581,146.091 23.7581,142.091 19.5,138.5C 18.2058,137.71 17.0391,136.71 16,135.5C 14.2437,132.927 12.7437,130.26 11.5,127.5C 10.2255,121.626 7.89214,116.292 4.5,111.5C 2.43765,105.1 2.10432,98.5998 3.5,92C 2.86979,86.828 2.20312,81.6614 1.5,76.5C 1.47697,74.9334 1.97697,73.6001 3,72.5C 3.18584,74.9005 3.68584,77.2338 4.5,79.5C 7.0891,76.5192 6.92244,73.5192 4,70.5C 3.50335,68.1902 3.33669,65.8568 3.5,63.5C 5.14387,63.2865 6.64387,63.6198 8,64.5C 8.69238,63.9747 9.19238,63.3081 9.5,62.5C 8.07737,60.1568 7.07737,57.6568 6.5,55C 7.78004,52.6403 8.4467,50.1403 8.5,47.5C 10.0435,42.9758 12.3768,38.9758 15.5,35.5C 16.7206,34.9717 17.8873,34.305 19,33.5C 20.8793,31.4732 22.046,29.1398 22.5,26.5C 23.5,24.8333 24.8333,23.5 26.5,22.5C 26.369,23.2389 26.5357,23.9056 27,24.5C 28.0113,23.6634 29.1779,23.33 30.5,23.5C 30.3832,25.4835 31.0499,27.1502 32.5,28.5C 41.6586,29.3429 45.9919,25.0096 45.5,15.5C 48.1666,14.6345 50.8332,13.6345 53.5,12.5C 49.5564,10.5959 49.8897,9.59585 54.5,9.5C 54.5,8.5 54.5,7.5 54.5,6.5C 56.1992,6.33982 57.8659,6.50649 59.5,7C 63.1284,10.2415 67.1284,12.4081 71.5,13.5 Z"/></g>
<g><path style="opacity:1" fill="#6045c4" d="M 71.5,13.5 C 71.8212,15.0481 72.8212,15.7148 74.5,15.5C 74.5,63.5 74.5,111.5 74.5,159.5C 73.1266,159.343 71.7932,159.51 70.5,160C 72.4783,162.015 74.3116,161.848 76,159.5C 78.1667,161 78,162.167 75.5,163C 71.8484,163.499 68.1817,163.665 64.5,163.5C 61.6759,162.237 58.8426,162.237 56,163.5C 54.0503,163.293 52.8836,162.293 52.5,160.5C 53.209,159.596 54.209,159.263 55.5,159.5C 55.4334,122.163 55.7667,84.83 56.5,47.5C 56.4882,36.4402 55.8215,25.6068 54.5,15C 59.9457,12.3715 65.6124,11.8715 71.5,13.5 Z"/></g>
<g><path style="opacity:1" fill="#583fc5" d="M 39.5,14.5 C 40.8734,14.3433 42.2068,14.51 43.5,15C 41.7193,17.4872 40.5526,20.3205 40,23.5C 35.8074,26.824 32.6407,26.1573 30.5,21.5C 33.917,19.4557 36.917,17.1224 39.5,14.5 Z"/></g>
<g><path style="opacity:0.949" fill="#6a57b2" d="M 22.5,26.5 C 22.046,29.1398 20.8793,31.4732 19,33.5C 17.8873,34.305 16.7206,34.9717 15.5,35.5C 17.4581,32.2085 19.7915,29.2085 22.5,26.5 Z"/></g>
<g><path style="opacity:0.023" fill="#f9f2fe" d="M 63.5,1.5 C 63.5,1.83333 63.5,2.16667 63.5,2.5C 49.2378,5.79453 36.9044,12.4612 26.5,22.5C 24.8333,23.5 23.5,24.8333 22.5,26.5C 19.7915,29.2085 17.4581,32.2085 15.5,35.5C 12.3768,38.9758 10.0435,42.9758 8.5,47.5C 3.96308,55.6544 0.963075,64.321 -0.5,73.5C -0.5,69.8333 -0.5,66.1667 -0.5,62.5C 8.91684,33.5755 27.9168,13.4088 56.5,2C 58.8098,1.50335 61.1432,1.33669 63.5,1.5 Z"/></g>
<g><path style="opacity:0.024" fill="#fef0ff" d="M 702.5,32.5 C 704.587,33.5846 705.92,35.2512 706.5,37.5C 704.413,36.4154 703.08,34.7488 702.5,32.5 Z"/></g>
<g><path style="opacity:0.984" fill="#cb9bda" d="M 680.5,13.5 C 685.236,16.0621 689.569,19.2288 693.5,23C 696.001,26.6671 699.001,29.8338 702.5,32.5C 703.08,34.7488 704.413,36.4154 706.5,37.5C 707.674,38.5137 708.34,39.847 708.5,41.5C 709.167,43.5 709.833,45.5 710.5,47.5C 707.09,43.6103 703.59,39.6103 700,35.5C 697.482,28.2515 692.648,23.4182 685.5,21C 683.963,19.8904 683.297,18.3904 683.5,16.5C 682.5,16.5 681.5,16.5 680.5,16.5C 680.5,15.5 680.5,14.5 680.5,13.5 Z"/></g>
<g><path style="opacity:0.012" fill="#fcedfd" d="M 708.5,41.5 C 711.54,44.9136 713.54,48.9136 714.5,53.5C 712.744,51.751 711.411,49.751 710.5,47.5C 709.833,45.5 709.167,43.5 708.5,41.5 Z"/></g>
<g><path style="opacity:0.006" fill="#fdf0fe" d="M 714.5,53.5 C 716.976,56.2882 717.976,59.6215 717.5,63.5C 715.757,60.5048 714.757,57.1715 714.5,53.5 Z"/></g>
<g><path style="opacity:0.027" fill="#fff4fe" d="M 717.5,63.5 C 718.167,63.5 718.833,63.5 719.5,63.5C 719.5,66.5 719.5,69.5 719.5,72.5C 718.343,69.7273 717.676,66.7273 717.5,63.5 Z"/></g>
<g><path style="opacity:0.984" fill="#5f48bc" d="M 8.5,47.5 C 8.4467,50.1403 7.78004,52.6403 6.5,55C 7.07737,57.6568 8.07737,60.1568 9.5,62.5C 9.19238,63.3081 8.69238,63.9747 8,64.5C 6.64387,63.6198 5.14387,63.2865 3.5,63.5C 3.33669,65.8568 3.50335,68.1902 4,70.5C 6.92244,73.5192 7.0891,76.5192 4.5,79.5C 3.68584,77.2338 3.18584,74.9005 3,72.5C 1.97697,73.6001 1.47697,74.9334 1.5,76.5C 2.20312,81.6614 2.86979,86.828 3.5,92C 2.10432,98.5998 2.43765,105.1 4.5,111.5C 2.35002,105.64 0.68335,99.6403 -0.5,93.5C -0.5,86.8333 -0.5,80.1667 -0.5,73.5C 0.963075,64.321 3.96308,55.6544 8.5,47.5 Z"/></g>
<g><path style="opacity:1" fill="#cd91df" d="M 710.5,47.5 C 711.411,49.751 712.744,51.751 714.5,53.5C 714.757,57.1715 715.757,60.5048 717.5,63.5C 717.676,66.7273 718.343,69.7273 719.5,72.5C 719.5,80.1667 719.5,87.8333 719.5,95.5C 718.119,99.9871 716.953,104.654 716,109.5C 713.814,115.937 710.98,121.937 707.5,127.5C 709.706,122.399 711.373,117.066 712.5,111.5C 711.448,111.351 710.448,111.517 709.5,112C 707.448,116.77 706.114,116.603 705.5,111.5C 708.83,111.837 710.496,110.337 710.5,107C 709.795,103.196 709.462,99.3625 709.5,95.5C 710.5,95.5 711.5,95.5 712.5,95.5C 712.5,98.1667 712.5,100.833 712.5,103.5C 713.5,103.5 714.5,103.5 715.5,103.5C 715.968,99.8687 715.301,96.5354 713.5,93.5C 714.517,90.3776 714.517,87.2109 713.5,84C 713.482,81.5782 714.149,79.4115 715.5,77.5C 715.29,71.8847 714.123,66.5513 712,61.5C 711.683,63.3008 711.016,63.6341 710,62.5C 709.667,64.8333 709.333,67.1667 709,69.5C 708.297,66.2875 708.464,63.1208 709.5,60C 710.384,58.902 711.384,58.402 712.5,58.5C 711.319,54.9284 710.652,51.2617 710.5,47.5 Z"/></g>
<g><path style="opacity:0.961" fill="#604eab" d="M 4.5,111.5 C 7.89214,116.292 10.2255,121.626 11.5,127.5C 8.09955,122.693 5.76622,117.36 4.5,111.5 Z"/></g>
<g><path style="opacity:0.993" fill="#c998d8" d="M 707.5,127.5 C 701.599,138.735 693.266,147.735 682.5,154.5C 682.343,153.127 682.51,151.793 683,150.5C 685.93,149.976 688.43,148.642 690.5,146.5C 693.497,143.369 695.663,139.702 697,135.5C 698.584,134.139 700.418,133.472 702.5,133.5C 702.414,130.042 704.081,128.042 707.5,127.5 Z"/></g>
<g><path style="opacity:0.01" fill="#fceffd" d="M 719.5,95.5 C 719.5,98.8333 719.5,102.167 719.5,105.5C 710.525,135.321 691.191,155.821 661.5,167C 658.568,167.953 655.568,168.453 652.5,168.5C 653.5,167.833 654.5,167.167 655.5,166.5C 665.45,164.353 674.45,160.353 682.5,154.5C 693.266,147.735 701.599,138.735 707.5,127.5C 710.98,121.937 713.814,115.937 716,109.5C 716.953,104.654 718.119,99.9871 719.5,95.5 Z"/></g>
<g><path style="opacity:0.882" fill="#6b5ab4" d="M 19.5,138.5 C 23.7581,142.091 27.7581,146.091 31.5,150.5C 26.5213,147.521 22.5213,143.521 19.5,138.5 Z"/></g>
<g><path style="opacity:0.953" fill="#6956b3" d="M 32.5,151.5 C 33.8734,151.343 35.2068,151.51 36.5,152C 39.0896,154.762 41.7563,157.262 44.5,159.5C 40.1477,157.327 36.1477,154.66 32.5,151.5 Z"/></g>
<g><path style="opacity:0.006" fill="#f2ebfd" d="M -0.5,93.5 C 0.68335,99.6403 2.35002,105.64 4.5,111.5C 5.76622,117.36 8.09955,122.693 11.5,127.5C 12.7437,130.26 14.2437,132.927 16,135.5C 17.0391,136.71 18.2058,137.71 19.5,138.5C 22.5213,143.521 26.5213,147.521 31.5,150.5C 31.5,151.167 31.8333,151.5 32.5,151.5C 36.1477,154.66 40.1477,157.327 44.5,159.5C 52.817,164.215 61.817,167.382 71.5,169C 103.165,169.5 134.832,169.667 166.5,169.5C 166.5,169.833 166.5,170.167 166.5,170.5C 166.167,170.5 165.833,170.5 165.5,170.5C 136.5,170.5 107.5,170.5 78.5,170.5C 51.0475,168.528 29.2142,156.528 13,134.5C 7.60477,126.035 3.10477,117.369 -0.5,108.5C -0.5,103.5 -0.5,98.5 -0.5,93.5 Z"/></g>
<g><path style="opacity:0.881" fill="#6952b6" d="M 44.5,159.5 C 47.1667,159.833 49.8333,160.167 52.5,160.5C 52.8836,162.293 54.0503,163.293 56,163.5C 58.8426,162.237 61.6759,162.237 64.5,163.5C 65.5981,164.397 65.5981,165.23 64.5,166C 68.6754,166.185 72.6754,167.019 76.5,168.5C 102.167,168.5 127.833,168.5 153.5,168.5C 157.833,168.5 162.167,168.5 166.5,168.5C 166.5,168.833 166.5,169.167 166.5,169.5C 134.832,169.667 103.165,169.5 71.5,169C 61.817,167.382 52.817,164.215 44.5,159.5 Z"/></g>
<g><path style="opacity:0.854" fill="#ab83ca" d="M 337.5,169.5 C 337.5,168.833 337.833,168.5 338.5,168.5C 347.833,168.5 357.167,168.5 366.5,168.5C 370.329,167.931 373.663,168.598 376.5,170.5C 363.53,169.577 350.53,169.244 337.5,169.5 Z"/></g>
<g><path style="opacity:0.696" fill="#c69ad6" d="M 655.5,166.5 C 654.5,167.167 653.5,167.833 652.5,168.5C 651.081,169.451 649.415,169.784 647.5,169.5C 624.831,169.333 602.164,169.5 579.5,170C 575.528,171.319 571.861,173.153 568.5,175.5C 568.92,171.442 571.253,169.442 575.5,169.5C 598.826,168.667 622.16,168.167 645.5,168C 648.827,167.39 652.161,166.89 655.5,166.5 Z"/></g>
<g><path style="opacity:0.008" fill="#fdfcfe" d="M 78.5,170.5 C 107.5,170.5 136.5,170.5 165.5,170.5C 165.5,181.5 165.5,192.5 165.5,203.5C 164.506,193.347 164.172,183.014 164.5,172.5C 135.687,171.866 107.02,171.199 78.5,170.5 Z"/></g>
<g><path style="opacity:1" fill="#4eaafd" d="M 166.5,169.5 C 223.167,169.5 279.833,169.5 336.5,169.5C 336.5,169.833 336.5,170.167 336.5,170.5C 336.832,232.669 336.499,294.669 335.5,356.5C 335.5,338.833 335.5,321.167 335.5,303.5C 335.333,275.498 335,247.498 334.5,219.5C 308.167,219.5 281.833,219.5 255.5,219.5C 255.5,218.167 255.5,216.833 255.5,215.5C 229.167,215.5 202.833,215.5 176.5,215.5C 176.5,218.167 176.5,220.833 176.5,223.5C 175.5,223.5 174.5,223.5 173.5,223.5C 173.949,229.352 173.449,235.019 172,240.5C 171.667,232.167 171.333,223.833 171,215.5C 170.818,218.226 170.318,220.893 169.5,223.5C 168.393,246.988 167.393,270.322 166.5,293.5C 166.5,252.5 166.5,211.5 166.5,170.5C 166.5,170.167 166.5,169.833 166.5,169.5 Z"/></g>
<g><path style="opacity:0.018" fill="#e8fdff" d="M 165.5,170.5 C 165.833,170.5 166.167,170.5 166.5,170.5C 166.5,211.5 166.5,252.5 166.5,293.5C 165.578,297.112 164.911,300.779 164.5,304.5C 157.827,321.174 145.827,331.84 128.5,336.5C 149.985,329.171 162.151,314.171 165,291.5C 165.5,262.169 165.667,232.835 165.5,203.5C 165.5,192.5 165.5,181.5 165.5,170.5 Z"/></g>
<g><path style="opacity:0.009" fill="#fefcfe" d="M 564.5,186.5 C 563.362,250.822 563.196,315.155 564,379.5C 564.53,385.922 566.364,391.922 569.5,397.5C 568.833,397.167 568.167,396.833 567.5,396.5C 564.325,390.981 562.659,384.981 562.5,378.5C 562.333,316.166 562.5,253.832 563,191.5C 563.198,189.618 563.698,187.952 564.5,186.5 Z"/></g>
<g><path style="opacity:0.019" fill="#fdf4fe" d="M 336.5,170.5 C 336.5,170.167 336.5,169.833 336.5,169.5C 336.833,169.5 337.167,169.5 337.5,169.5C 350.53,169.244 363.53,169.577 376.5,170.5C 379.131,172.153 381.797,173.819 384.5,175.5C 386.905,178.634 389.072,181.968 391,185.5C 391.167,283.668 391.667,381.668 392.5,479.5C 392.902,493.905 396.569,507.238 403.5,519.5C 404.555,524.014 406.555,528.014 409.5,531.5C 411.766,535.034 413.766,538.7 415.5,542.5C 401.827,525.363 393.66,505.697 391,483.5C 390.984,384.141 390.317,284.807 389,185.5C 386.894,179.728 383.061,175.562 377.5,173C 365.537,171.81 353.537,170.976 341.5,170.5C 339.833,170.5 338.167,170.5 336.5,170.5 Z"/></g>
<g><path style="opacity:0.291" fill="#c39cdd" d="M 384.5,175.5 C 389.41,177.955 392.41,181.955 393.5,187.5C 392.512,284.815 392.178,382.149 392.5,479.5C 391.667,381.668 391.167,283.668 391,185.5C 389.072,181.968 386.905,178.634 384.5,175.5 Z"/></g>
<g><path style="opacity:0.221" fill="#f8e3fe" d="M 647.5,169.5 C 624.982,170.129 602.315,170.962 579.5,172C 571.385,173.615 566.385,178.448 564.5,186.5C 563.698,187.952 563.198,189.618 563,191.5C 562.5,253.832 562.333,316.166 562.5,378.5C 561.335,315.335 561.168,252.001 562,188.5C 563.121,183.592 565.287,179.259 568.5,175.5C 571.861,173.153 575.528,171.319 579.5,170C 602.164,169.5 624.831,169.333 647.5,169.5 Z"/></g>
<g><path style="opacity:0.889" fill="#c591d6" d="M 568.5,175.5 C 565.287,179.259 563.121,183.592 562,188.5C 561.168,252.001 561.335,315.335 562.5,378.5C 562.659,384.981 564.325,390.981 567.5,396.5C 566.504,396.586 565.671,396.252 565,395.5C 563.66,391.49 562.327,387.49 561,383.5C 560.825,318.649 560.325,253.816 559.5,189C 559.992,184.86 561.325,181.027 563.5,177.5C 564.842,175.995 566.508,175.328 568.5,175.5 Z"/></g>
<g><path style="opacity:1" fill="#47a5fe" d="M 335.5,303.5 C 334.505,291.678 334.172,279.678 334.5,267.5C 321.5,267.5 308.5,267.5 295.5,267.5C 295.5,266.167 295.5,264.833 295.5,263.5C 255.824,263.574 216.157,264.241 176.5,265.5C 176,266.5 175.5,267.5 175,268.5C 173.939,263.896 173.273,259.229 173,254.5C 171.886,259.022 171.053,263.689 170.5,268.5C 169.719,267.271 169.219,265.938 169,264.5C 168.667,275.833 168.333,287.167 168,298.5C 167.414,301.019 166.247,303.019 164.5,304.5C 164.911,300.779 165.578,297.112 166.5,293.5C 167.393,270.322 168.393,246.988 169.5,223.5C 170.318,220.893 170.818,218.226 171,215.5C 171.333,223.833 171.667,232.167 172,240.5C 173.449,235.019 173.949,229.352 173.5,223.5C 174.5,223.5 175.5,223.5 176.5,223.5C 176.5,220.833 176.5,218.167 176.5,215.5C 202.833,215.5 229.167,215.5 255.5,215.5C 255.5,216.833 255.5,218.167 255.5,219.5C 281.833,219.5 308.167,219.5 334.5,219.5C 335,247.498 335.333,275.498 335.5,303.5 Z"/></g>
<g><path style="opacity:1" fill="#429ffe" d="M 335.5,303.5 C 335.5,321.167 335.5,338.833 335.5,356.5C 335.453,363.111 334.453,369.444 332.5,375.5C 334.299,358.241 334.965,340.907 334.5,323.5C 334.5,318.167 334.5,312.833 334.5,307.5C 286.833,307.5 239.167,307.5 191.5,307.5C 191.5,306.167 191.5,304.833 191.5,303.5C 202.172,303.667 212.839,303.5 223.5,303C 207.503,302.5 191.503,302.333 175.5,302.5C 174.823,297.463 173.823,292.463 172.5,287.5C 172.167,288.667 171.833,289.833 171.5,291C 171.945,293.59 172.611,296.09 173.5,298.5C 172.325,298.281 171.325,298.614 170.5,299.5C 167.548,303.554 167.881,307.221 171.5,310.5C 169.827,312.086 167.827,312.753 165.5,312.5C 165.5,313.5 165.5,314.5 165.5,315.5C 164.732,314.737 164.232,313.737 164,312.5C 163.617,313.056 163.117,313.389 162.5,313.5C 163.461,310.574 164.127,307.574 164.5,304.5C 166.247,303.019 167.414,301.019 168,298.5C 168.333,287.167 168.667,275.833 169,264.5C 169.219,265.938 169.719,267.271 170.5,268.5C 171.053,263.689 171.886,259.022 173,254.5C 173.273,259.229 173.939,263.896 175,268.5C 175.5,267.5 176,266.5 176.5,265.5C 216.157,264.241 255.824,263.574 295.5,263.5C 295.5,264.833 295.5,266.167 295.5,267.5C 308.5,267.5 321.5,267.5 334.5,267.5C 334.172,279.678 334.505,291.678 335.5,303.5 Z"/></g>
<g><path style="opacity:1" fill="#3f9bfe" d="M 334.5,323.5 C 308.128,323.591 281.794,322.591 255.5,320.5C 228.842,319.5 202.175,319.167 175.5,319.5C 175.5,318.167 175.5,316.833 175.5,315.5C 174.5,315.5 173.5,315.5 172.5,315.5C 173.244,318.95 171.91,320.616 168.5,320.5C 168.66,318.801 168.494,317.134 168,315.5C 167.71,317.044 167.044,318.377 166,319.5C 166.331,317.981 166.164,316.648 165.5,315.5C 165.5,314.5 165.5,313.5 165.5,312.5C 167.827,312.753 169.827,312.086 171.5,310.5C 167.881,307.221 167.548,303.554 170.5,299.5C 171.325,298.614 172.325,298.281 173.5,298.5C 172.611,296.09 171.945,293.59 171.5,291C 171.833,289.833 172.167,288.667 172.5,287.5C 173.823,292.463 174.823,297.463 175.5,302.5C 191.503,302.333 207.503,302.5 223.5,303C 212.839,303.5 202.172,303.667 191.5,303.5C 191.5,304.833 191.5,306.167 191.5,307.5C 239.167,307.5 286.833,307.5 334.5,307.5C 334.5,312.833 334.5,318.167 334.5,323.5 Z"/></g>
<g><path style="opacity:1" fill="#3c98fe" d="M 165.5,315.5 C 166.164,316.648 166.331,317.981 166,319.5C 167.044,318.377 167.71,317.044 168,315.5C 168.494,317.134 168.66,318.801 168.5,320.5C 171.91,320.616 173.244,318.95 172.5,315.5C 173.5,315.5 174.5,315.5 175.5,315.5C 175.5,316.833 175.5,318.167 175.5,319.5C 202.175,319.167 228.842,319.5 255.5,320.5C 281.794,322.591 308.128,323.591 334.5,323.5C 334.965,340.907 334.299,358.241 332.5,375.5C 332.01,380.506 330.676,385.172 328.5,389.5C 328.5,388.5 328.5,387.5 328.5,386.5C 324.195,386.158 322.695,383.824 324,379.5C 324.923,380.759 325.757,382.092 326.5,383.5C 328.123,375.972 330.123,368.472 332.5,361C 331.576,359.189 330.743,359.355 330,361.5C 329.667,360.833 329.333,360.167 329,359.5C 328.581,360.672 327.915,361.672 327,362.5C 326.383,361.551 326.549,360.718 327.5,360C 326.833,359.667 326.167,359.333 325.5,359C 329.02,354.367 328.02,351.867 322.5,351.5C 322.701,354.728 322.367,357.895 321.5,361C 321.833,361.5 322.167,362 322.5,362.5C 323.251,361.624 323.751,360.624 324,359.5C 325.045,363.087 326.212,366.587 327.5,370C 327.375,371.627 326.875,373.127 326,374.5C 325.882,371.629 325.216,368.962 324,366.5C 323.808,368.577 323.308,370.577 322.5,372.5C 321.851,370.376 321.017,368.376 320,366.5C 293.233,367.828 266.399,367.828 239.5,366.5C 265.827,365.667 292.16,365.167 318.5,365C 319.406,363.301 319.739,361.467 319.5,359.5C 271.469,359.001 223.469,359.667 175.5,361.5C 175.5,360.167 175.5,358.833 175.5,357.5C 180.833,357.5 186.167,357.5 191.5,357.5C 191.5,356.5 191.5,355.5 191.5,354.5C 167.5,354.5 143.5,354.5 119.5,354.5C 119.719,353.325 119.386,352.325 118.5,351.5C 105.737,352.558 92.7367,352.725 79.5,352C 79.0426,351.586 78.7093,351.086 78.5,350.5C 89.4849,349.668 100.485,349.168 111.5,349C 112.833,348.333 112.833,347.667 111.5,347C 98.2874,345.817 85.2874,346.483 72.5,349C 76.5,350 76.5,351 72.5,352C 70.6667,352.167 68.8333,352.333 67,352.5C 64.6977,352.4 62.6977,351.733 61,350.5C 59,351.167 57,351.833 55,352.5C 54.2496,351.874 53.4162,351.374 52.5,351C 55.0336,349.151 57.7003,347.485 60.5,346C 62.483,346.111 64.483,346.611 66.5,347.5C 69.1817,347.923 70.3483,346.923 70,344.5C 69.6667,344.833 69.3333,345.167 69,345.5C 66.9129,344.603 64.7463,343.936 62.5,343.5C 67.3543,342.291 72.3543,341.125 77.5,340C 88.8284,339.5 100.162,339.333 111.5,339.5C 122.545,340.785 133.045,338.785 143,333.5C 144.162,334.187 145.328,334.353 146.5,334C 147.794,331.913 148.961,329.746 150,327.5C 154.745,323.26 158.912,318.593 162.5,313.5C 163.117,313.389 163.617,313.056 164,312.5C 164.232,313.737 164.732,314.737 165.5,315.5 Z"/></g>
<g><path style="opacity:1" fill="#5599ea" d="M 164.5,304.5 C 164.127,307.574 163.461,310.574 162.5,313.5C 158.912,318.593 154.745,323.26 150,327.5C 148.961,329.746 147.794,331.913 146.5,334C 145.328,334.353 144.162,334.187 143,333.5C 133.045,338.785 122.545,340.785 111.5,339.5C 114.385,339.806 117.052,339.473 119.5,338.5C 122.781,338.58 125.781,337.913 128.5,336.5C 145.827,331.84 157.827,321.174 164.5,304.5 Z"/></g>
<g><path style="opacity:0.007" fill="#edfeff" d="M 128.5,336.5 C 125.781,337.913 122.781,338.58 119.5,338.5C 105.167,338.5 90.8333,338.5 76.5,338.5C 93.6814,337.763 111.015,337.096 128.5,336.5 Z"/></g>
<g><path style="opacity:0.008" fill="#e6fcff" d="M 76.5,338.5 C 68.5342,340.158 60.5342,342.158 52.5,344.5C 59.857,340.357 67.857,338.357 76.5,338.5 Z"/></g>
<g><path style="opacity:0.914" fill="#78aeed" d="M 76.5,338.5 C 90.8333,338.5 105.167,338.5 119.5,338.5C 117.052,339.473 114.385,339.806 111.5,339.5C 100.162,339.333 88.8284,339.5 77.5,340C 72.3543,341.125 67.3543,342.291 62.5,343.5C 59.2107,344.374 55.8774,345.041 52.5,345.5C 52.5,345.167 52.5,344.833 52.5,344.5C 60.5342,342.158 68.5342,340.158 76.5,338.5 Z"/></g>
<g><path style="opacity:1" fill="#3992fd" d="M 62.5,343.5 C 64.7463,343.936 66.9129,344.603 69,345.5C 69.3333,345.167 69.6667,344.833 70,344.5C 70.3483,346.923 69.1817,347.923 66.5,347.5C 64.483,346.611 62.483,346.111 60.5,346C 57.7003,347.485 55.0336,349.151 52.5,351C 53.4162,351.374 54.2496,351.874 55,352.5C 57,351.833 59,351.167 61,350.5C 62.6977,351.733 64.6977,352.4 67,352.5C 68.8333,352.333 70.6667,352.167 72.5,352C 76.5,351 76.5,350 72.5,349C 85.2874,346.483 98.2874,345.817 111.5,347C 112.833,347.667 112.833,348.333 111.5,349C 100.485,349.168 89.4849,349.668 78.5,350.5C 78.7093,351.086 79.0426,351.586 79.5,352C 92.7367,352.725 105.737,352.558 118.5,351.5C 119.386,352.325 119.719,353.325 119.5,354.5C 143.5,354.5 167.5,354.5 191.5,354.5C 191.5,355.5 191.5,356.5 191.5,357.5C 186.167,357.5 180.833,357.5 175.5,357.5C 175.5,358.833 175.5,360.167 175.5,361.5C 223.469,359.667 271.469,359.001 319.5,359.5C 319.739,361.467 319.406,363.301 318.5,365C 292.16,365.167 265.827,365.667 239.5,366.5C 266.399,367.828 293.233,367.828 320,366.5C 321.017,368.376 321.851,370.376 322.5,372.5C 323.308,370.577 323.808,368.577 324,366.5C 325.216,368.962 325.882,371.629 326,374.5C 326.875,373.127 327.375,371.627 327.5,370C 326.212,366.587 325.045,363.087 324,359.5C 323.751,360.624 323.251,361.624 322.5,362.5C 322.167,362 321.833,361.5 321.5,361C 322.367,357.895 322.701,354.728 322.5,351.5C 328.02,351.867 329.02,354.367 325.5,359C 326.167,359.333 326.833,359.667 327.5,360C 326.549,360.718 326.383,361.551 327,362.5C 327.915,361.672 328.581,360.672 329,359.5C 329.333,360.167 329.667,360.833 330,361.5C 330.743,359.355 331.576,359.189 332.5,361C 330.123,368.472 328.123,375.972 326.5,383.5C 325.757,382.092 324.923,380.759 324,379.5C 322.695,383.824 324.195,386.158 328.5,386.5C 328.5,387.5 328.5,388.5 328.5,389.5C 325.166,401.156 320.5,412.156 314.5,422.5C 313.996,417.742 312.996,413.409 311.5,409.5C 311.833,408.5 312.5,407.833 313.5,407.5C 314.768,408.428 316.101,408.595 317.5,408C 318.557,405.661 319.89,403.495 321.5,401.5C 321.291,400.914 320.957,400.414 320.5,400C 322.283,398.933 322.783,397.433 322,395.5C 321.667,394.5 321.333,393.5 321,392.5C 320.768,393.737 320.268,394.737 319.5,395.5C 279.5,395.5 239.5,395.5 199.5,395.5C 199.5,394.167 199.5,392.833 199.5,391.5C 146.151,392.671 114.151,392.671 103.5,391.5C 103.5,390.167 103.5,388.833 103.5,387.5C 73.8315,387.667 44.1648,387.5 14.5,387C 14.12,384.674 13.12,382.841 11.5,381.5C 16.3281,371.667 23.3281,363.667 32.5,357.5C 37.4774,354.677 42.4774,351.843 47.5,349C 49.1341,348.506 50.8008,348.34 52.5,348.5C 52.5,347.5 52.5,346.5 52.5,345.5C 55.8774,345.041 59.2107,344.374 62.5,343.5 Z"/></g>
<g><path style="opacity:0.82" fill="#5a98e8" d="M 52.5,345.5 C 52.5,346.5 52.5,347.5 52.5,348.5C 50.8008,348.34 49.1341,348.506 47.5,349C 42.4774,351.843 37.4774,354.677 32.5,357.5C 38.1633,351.994 44.83,347.994 52.5,345.5 Z"/></g>
<g><path style="opacity:0.012" fill="#e3f9fe" d="M 52.5,344.5 C 52.5,344.833 52.5,345.167 52.5,345.5C 44.83,347.994 38.1633,351.994 32.5,357.5C 23.3281,363.667 16.3281,371.667 11.5,381.5C 7.20292,388.39 3.86958,395.723 1.5,403.5C 3.67289,390.82 8.83955,379.486 17,369.5C 26.5441,357.77 38.3774,349.436 52.5,344.5 Z"/></g>
<g><path style="opacity:1" fill="#388ffe" d="M 11.5,381.5 C 13.12,382.841 14.12,384.674 14.5,387C 44.1648,387.5 73.8315,387.667 103.5,387.5C 103.5,388.833 103.5,390.167 103.5,391.5C 114.151,392.671 146.151,392.671 199.5,391.5C 199.5,392.833 199.5,394.167 199.5,395.5C 239.5,395.5 279.5,395.5 319.5,395.5C 319.007,397.806 318.674,400.139 318.5,402.5C 289.5,402.5 260.5,402.5 231.5,402.5C 231.5,401.5 231.5,400.5 231.5,399.5C 199.5,399.5 167.5,399.5 135.5,399.5C 135.5,398.5 135.5,397.5 135.5,396.5C 104.819,396.583 74.1519,395.916 43.5,394.5C 33.7885,394.512 24.1218,394.845 14.5,395.5C 13.5095,392.553 12.1762,389.886 10.5,387.5C 10.3601,385.876 11.0267,384.71 12.5,384C 11.7476,383.329 11.4142,382.496 11.5,381.5 Z"/></g>
<g><path style="opacity:0.998" fill="#4992f1" d="M 11.5,381.5 C 11.4142,382.496 11.7476,383.329 12.5,384C 11.0267,384.71 10.3601,385.876 10.5,387.5C 10.0825,388.222 9.4158,388.722 8.5,389C 8.31389,390.867 8.64722,392.867 9.5,395C 9.16667,395.5 8.83333,396 8.5,396.5C 7.74917,395.624 7.24917,394.624 7,393.5C 6.34675,396.218 5.51341,398.884 4.5,401.5C 5.03688,404.035 6.03688,406.369 7.5,408.5C 7.16667,409.167 6.83333,409.833 6.5,410.5C 3.79734,403.531 2.46401,403.864 2.5,411.5C 1.56552,410.432 1.23219,409.099 1.5,407.5C 1.5,406.167 1.5,404.833 1.5,403.5C 3.86958,395.723 7.20292,388.39 11.5,381.5 Z"/></g>
<g><path style="opacity:1" fill="#358cfd" d="M 10.5,387.5 C 12.1762,389.886 13.5095,392.553 14.5,395.5C 24.1218,394.845 33.7885,394.512 43.5,394.5C 74.1519,395.916 104.819,396.583 135.5,396.5C 135.5,397.5 135.5,398.5 135.5,399.5C 167.5,399.5 199.5,399.5 231.5,399.5C 231.5,400.5 231.5,401.5 231.5,402.5C 260.5,402.5 289.5,402.5 318.5,402.5C 318.674,400.139 319.007,397.806 319.5,395.5C 320.268,394.737 320.768,393.737 321,392.5C 321.333,393.5 321.667,394.5 322,395.5C 322.783,397.433 322.283,398.933 320.5,400C 320.957,400.414 321.291,400.914 321.5,401.5C 319.89,403.495 318.557,405.661 317.5,408C 316.101,408.595 314.768,408.428 313.5,407.5C 312.5,407.833 311.833,408.5 311.5,409.5C 312.996,413.409 313.996,417.742 314.5,422.5C 314.5,423.167 314.167,423.5 313.5,423.5C 304.591,412.571 303.591,413.405 310.5,426C 308.62,429.597 306.62,433.097 304.5,436.5C 303.311,437.429 301.978,437.762 300.5,437.5C 300.5,436.5 300.5,435.5 300.5,434.5C 299.5,434.5 298.5,434.5 297.5,434.5C 297.966,436.201 297.966,437.701 297.5,439C 298.448,439.483 299.448,439.649 300.5,439.5C 300.5,440.833 300.5,442.167 300.5,443.5C 299.5,445.167 298.167,446.5 296.5,447.5C 296.649,446.448 296.483,445.448 296,444.5C 295.259,445.641 294.425,445.641 293.5,444.5C 292.548,442.955 292.215,441.288 292.5,439.5C 288.062,438.425 286.062,440.092 286.5,444.5C 233.507,443.375 180.507,442.708 127.5,442.5C 127.5,441.5 127.5,440.5 127.5,439.5C 95.5,439.5 63.5,439.5 31.5,439.5C 31.5,438.5 31.5,437.5 31.5,436.5C 25.8236,436.666 20.1569,436.499 14.5,436C 15.03,433.864 14.1967,432.03 12,430.5C 11.2119,433.772 11.7119,436.772 13.5,439.5C 12.3852,441.307 11.7186,443.307 11.5,445.5C 11.4532,448.073 12.4532,450.073 14.5,451.5C 15.6548,454.446 15.8214,457.446 15,460.5C 11.3015,454.258 9.80148,447.592 10.5,440.5C 9.36568,437.93 8.53234,435.264 8,432.5C 6.65753,431.098 5.8242,431.431 5.5,433.5C 6.74096,437.49 6.74096,441.49 5.5,445.5C 7.65306,451.064 9.31973,457.397 10.5,464.5C 5.82929,456.848 2.82929,448.514 1.5,439.5C 1.10838,434.343 0.775046,429.176 0.5,424C 0.823403,419.736 1.49007,415.57 2.5,411.5C 2.46401,403.864 3.79734,403.531 6.5,410.5C 6.83333,409.833 7.16667,409.167 7.5,408.5C 6.03688,406.369 5.03688,404.035 4.5,401.5C 5.51341,398.884 6.34675,396.218 7,393.5C 7.24917,394.624 7.74917,395.624 8.5,396.5C 8.83333,396 9.16667,395.5 9.5,395C 8.64722,392.867 8.31389,390.867 8.5,389C 9.4158,388.722 10.0825,388.222 10.5,387.5 Z"/></g>
<g><path style="opacity:0.012" fill="#e7fefe" d="M 1.5,403.5 C 1.5,404.833 1.5,406.167 1.5,407.5C 0.833333,409.5 0.166667,411.5 -0.5,413.5C -0.5,410.5 -0.5,407.5 -0.5,404.5C 0.166667,404.167 0.833333,403.833 1.5,403.5 Z"/></g>
<g><path style="opacity:0.999" fill="#cc95dd" d="M 567.5,396.5 C 568.167,396.833 568.833,397.167 569.5,397.5C 570.906,397.973 571.573,398.973 571.5,400.5C 572.882,403.394 574.882,405.894 577.5,408C 582.097,411.123 586.763,413.957 591.5,416.5C 585.213,414.694 578.88,414.028 572.5,414.5C 573.824,413.065 575.49,412.065 577.5,411.5C 575.488,407.996 572.488,404.829 568.5,402C 567.767,400.234 567.433,398.401 567.5,396.5 Z"/></g>
<g><path style="opacity:0.009" fill="#fcecfd" d="M 571.5,400.5 C 576.426,405.634 582.093,409.801 588.5,413C 601.9,415.829 615.233,418.329 628.5,420.5C 616.123,419.373 603.789,418.04 591.5,416.5C 586.763,413.957 582.097,411.123 577.5,408C 574.882,405.894 572.882,403.394 571.5,400.5 Z"/></g>
<g><path style="opacity:0.758" fill="#6eadf4" d="M 1.5,407.5 C 1.23219,409.099 1.56552,410.432 2.5,411.5C 1.49007,415.57 0.823403,419.736 0.5,424C 0.775046,429.176 1.10838,434.343 1.5,439.5C 0.833333,437.5 0.166667,435.5 -0.5,433.5C -0.5,426.833 -0.5,420.167 -0.5,413.5C 0.166667,411.5 0.833333,409.5 1.5,407.5 Z"/></g>
<g><path style="opacity:1" fill="#ca95d8" d="M 591.5,416.5 C 603.789,418.04 616.123,419.373 628.5,420.5C 635.125,422.928 641.458,425.928 647.5,429.5C 641.718,427.411 635.718,426.245 629.5,426C 627.999,424.748 626.332,423.748 624.5,423C 614.846,421.445 605.179,420.112 595.5,419C 593.68,418.8 592.347,417.966 591.5,416.5 Z"/></g>
<g><path style="opacity:0.02" fill="#fbebfd" d="M 628.5,420.5 C 638.229,422.367 646.896,426.367 654.5,432.5C 652.02,431.758 649.687,430.758 647.5,429.5C 641.458,425.928 635.125,422.928 628.5,420.5 Z"/></g>
<g><path style="opacity:0.98" fill="#4f90ee" d="M 313.5,423.5 C 310.149,430.886 305.816,437.552 300.5,443.5C 300.5,442.167 300.5,440.833 300.5,439.5C 299.448,439.649 298.448,439.483 297.5,439C 297.966,437.701 297.966,436.201 297.5,434.5C 298.5,434.5 299.5,434.5 300.5,434.5C 300.5,435.5 300.5,436.5 300.5,437.5C 301.978,437.762 303.311,437.429 304.5,436.5C 306.62,433.097 308.62,429.597 310.5,426C 303.591,413.405 304.591,412.571 313.5,423.5 Z"/></g>
<g><path style="opacity:1" fill="#3288fc" d="M 296.5,447.5 C 294.212,451.456 291.212,454.789 287.5,457.5C 287.75,454.786 287.917,452.119 288,449.5C 287.5,450.5 287,451.5 286.5,452.5C 281.66,453.17 277.827,455.504 275,459.5C 274.254,456.211 275.42,453.711 278.5,452C 277.692,451.692 277.025,451.192 276.5,450.5C 277.522,449.646 278.355,448.646 279,447.5C 279.833,450 281,450.167 282.5,448C 281.271,447.219 279.938,446.719 278.5,446.5C 276.459,448.353 274.126,449.853 271.5,451C 234.126,451.966 196.793,451.132 159.5,448.5C 124.84,447.5 90.1731,447.167 55.5,447.5C 55.5,446.167 55.5,444.833 55.5,443.5C 42.5,443.5 29.5,443.5 16.5,443.5C 16.313,441.436 15.813,439.436 15,437.5C 14.7216,438.416 14.2216,439.082 13.5,439.5C 11.7119,436.772 11.2119,433.772 12,430.5C 14.1967,432.03 15.03,433.864 14.5,436C 20.1569,436.499 25.8236,436.666 31.5,436.5C 31.5,437.5 31.5,438.5 31.5,439.5C 63.5,439.5 95.5,439.5 127.5,439.5C 127.5,440.5 127.5,441.5 127.5,442.5C 180.507,442.708 233.507,443.375 286.5,444.5C 286.062,440.092 288.062,438.425 292.5,439.5C 292.215,441.288 292.548,442.955 293.5,444.5C 294.425,445.641 295.259,445.641 296,444.5C 296.483,445.448 296.649,446.448 296.5,447.5 Z"/></g>
<g><path style="opacity:0.01" fill="#fceefd" d="M 654.5,432.5 C 658.363,433.694 661.363,436.027 663.5,439.5C 662.833,439.5 662.167,439.5 661.5,439.5C 659.36,436.939 657.027,434.605 654.5,432.5 Z"/></g>
<g><path style="opacity:1" fill="#3085fd" d="M 13.5,439.5 C 14.2216,439.082 14.7216,438.416 15,437.5C 15.813,439.436 16.313,441.436 16.5,443.5C 29.5,443.5 42.5,443.5 55.5,443.5C 55.5,444.833 55.5,446.167 55.5,447.5C 90.1731,447.167 124.84,447.5 159.5,448.5C 196.793,451.132 234.126,451.966 271.5,451C 274.126,449.853 276.459,448.353 278.5,446.5C 279.938,446.719 281.271,447.219 282.5,448C 281,450.167 279.833,450 279,447.5C 278.355,448.646 277.522,449.646 276.5,450.5C 277.025,451.192 277.692,451.692 278.5,452C 275.42,453.711 274.254,456.211 275,459.5C 277.827,455.504 281.66,453.17 286.5,452.5C 287,451.5 287.5,450.5 288,449.5C 287.917,452.119 287.75,454.786 287.5,457.5C 284.527,461.14 281.194,464.473 277.5,467.5C 275.856,467.714 274.356,467.38 273,466.5C 271.991,468.025 271.491,469.692 271.5,471.5C 268.473,472.346 265.64,473.68 263,475.5C 262.517,474.552 262.351,473.552 262.5,472.5C 260.833,472.5 259.167,472.5 257.5,472.5C 256.874,475.315 255.54,477.815 253.5,480C 254.634,481.016 254.301,481.683 252.5,482C 253.167,482.333 253.833,482.667 254.5,483C 251.248,483.791 248.248,483.291 245.5,481.5C 244.833,481.833 244.167,482.167 243.5,482.5C 245.865,483.085 247.865,484.252 249.5,486C 248.167,486.333 246.833,486.667 245.5,487C 246.056,487.383 246.389,487.883 246.5,488.5C 244.151,490.341 241.485,491.674 238.5,492.5C 235.779,492.963 233.112,493.629 230.5,494.5C 230.511,492.983 231.177,491.816 232.5,491C 229.861,489.054 226.861,488.054 223.5,488C 210.171,487.5 196.837,487.333 183.5,487.5C 183.5,486.5 183.5,485.5 183.5,484.5C 138.169,483.685 92.836,483.019 47.5,482.5C 47.5,484.167 47.5,485.833 47.5,487.5C 46.5,487.5 45.5,487.5 44.5,487.5C 44.9493,483.952 45.9493,480.619 47.5,477.5C 39.9429,477.86 32.7762,477.193 26,475.5C 21.3103,477.202 21.3103,479.869 26,483.5C 26.3333,482.833 26.6667,482.167 27,481.5C 28.7106,484.58 31.2106,485.746 34.5,485C 35.7468,483.542 35.7468,482.042 34.5,480.5C 36.0453,479.548 37.712,479.215 39.5,479.5C 39.3505,480.552 39.5172,481.552 40,482.5C 44.6869,485.666 44.1869,486.833 38.5,486C 38.0945,487.803 38.5945,489.636 40,491.5C 43.0318,492.398 46.0318,494.065 49,496.5C 49.3333,496.167 49.6667,495.833 50,495.5C 51.0674,496.191 52.2341,496.691 53.5,497C 53.1667,497.333 52.8333,497.667 52.5,498C 53.8586,499.204 54.8586,500.704 55.5,502.5C 57.4317,503.366 59.4317,504.033 61.5,504.5C 62.9863,503.186 64.653,502.186 66.5,501.5C 74.217,502.092 80.8837,503.592 86.5,506C 113.498,506.5 140.498,506.667 167.5,506.5C 136.669,507.664 105.669,507.831 74.5,507C 70.23,505.925 65.8967,505.425 61.5,505.5C 45.5702,501.221 32.2369,492.887 21.5,480.5C 21.1077,478.821 20.6077,477.154 20,475.5C 17.8156,473.712 15.649,472.046 13.5,470.5C 12.4706,468.483 11.4706,466.483 10.5,464.5C 9.31973,457.397 7.65306,451.064 5.5,445.5C 6.74096,441.49 6.74096,437.49 5.5,433.5C 5.8242,431.431 6.65753,431.098 8,432.5C 8.53234,435.264 9.36568,437.93 10.5,440.5C 9.80148,447.592 11.3015,454.258 15,460.5C 15.8214,457.446 15.6548,454.446 14.5,451.5C 12.4532,450.073 11.4532,448.073 11.5,445.5C 11.7186,443.307 12.3852,441.307 13.5,439.5 Z"/></g>
<g><path style="opacity:0.02" fill="#e6f8fe" d="M -0.5,433.5 C 0.166667,435.5 0.833333,437.5 1.5,439.5C 2.82929,448.514 5.82929,456.848 10.5,464.5C 11.4706,466.483 12.4706,468.483 13.5,470.5C 15.1933,473.184 16.86,475.851 18.5,478.5C 14.5387,474.688 11.0387,470.355 8,465.5C 5.52514,458.676 2.69181,452.343 -0.5,446.5C -0.5,442.167 -0.5,437.833 -0.5,433.5 Z"/></g>
<g><path style="opacity:0.961" fill="#cba5da" d="M 661.5,439.5 C 662.167,439.5 662.833,439.5 663.5,439.5C 665.167,441.833 667.167,443.833 669.5,445.5C 669.5,446.167 669.5,446.833 669.5,447.5C 666.215,445.549 663.549,442.882 661.5,439.5 Z"/></g>
<g><path style="opacity:0.011" fill="#fff6ff" d="M 663.5,439.5 C 666.5,440.5 668.5,442.5 669.5,445.5C 667.167,443.833 665.167,441.833 663.5,439.5 Z"/></g>
<g><path style="opacity:0.014" fill="#fcedfe" d="M 669.5,445.5 C 671.914,446.911 673.581,448.911 674.5,451.5C 672.833,450.167 671.167,448.833 669.5,447.5C 669.5,446.833 669.5,446.167 669.5,445.5 Z"/></g>
<g><path style="opacity:0.733" fill="#ecd4f2" d="M 674.5,451.5 C 677.521,454.366 680.021,457.7 682,461.5C 683.741,464.309 684.908,467.309 685.5,470.5C 683.987,467.476 681.987,464.809 679.5,462.5C 678.52,459.884 677.02,457.551 675,455.5C 674.51,454.207 674.343,452.873 674.5,451.5 Z"/></g>
<g><path style="opacity:0.02" fill="#e1f6fe" d="M 336.5,170.5 C 338.167,170.5 339.833,170.5 341.5,170.5C 339.672,177.559 338.672,184.893 338.5,192.5C 339.105,203.154 339.438,213.821 339.5,224.5C 338.852,265.831 338.352,307.165 338,348.5C 330.046,425.288 289.88,476.788 217.5,503C 204.735,506.62 191.735,508.953 178.5,510C 143.833,510.667 109.167,510.667 74.5,510C 72.6183,509.802 70.9516,509.302 69.5,508.5C 103.819,509.618 138.153,509.785 172.5,509C 179.068,508.849 185.401,508.015 191.5,506.5C 202.736,505.634 213.403,502.968 223.5,498.5C 224.959,498.567 226.292,498.234 227.5,497.5C 231.497,496.397 235.164,494.731 238.5,492.5C 241.485,491.674 244.151,490.341 246.5,488.5C 258.048,483.231 268.381,476.231 277.5,467.5C 281.194,464.473 284.527,461.14 287.5,457.5C 291.212,454.789 294.212,451.456 296.5,447.5C 298.167,446.5 299.5,445.167 300.5,443.5C 305.816,437.552 310.149,430.886 313.5,423.5C 314.167,423.5 314.5,423.167 314.5,422.5C 320.5,412.156 325.166,401.156 328.5,389.5C 330.676,385.172 332.01,380.506 332.5,375.5C 334.453,369.444 335.453,363.111 335.5,356.5C 336.499,294.669 336.832,232.669 336.5,170.5 Z"/></g>
<g><path style="opacity:1" fill="#3f87f1" d="M 277.5,467.5 C 268.381,476.231 258.048,483.231 246.5,488.5C 246.389,487.883 246.056,487.383 245.5,487C 246.833,486.667 248.167,486.333 249.5,486C 247.865,484.252 245.865,483.085 243.5,482.5C 244.167,482.167 244.833,481.833 245.5,481.5C 248.248,483.291 251.248,483.791 254.5,483C 253.833,482.667 253.167,482.333 252.5,482C 254.301,481.683 254.634,481.016 253.5,480C 255.54,477.815 256.874,475.315 257.5,472.5C 259.167,472.5 260.833,472.5 262.5,472.5C 262.351,473.552 262.517,474.552 263,475.5C 265.64,473.68 268.473,472.346 271.5,471.5C 271.491,469.692 271.991,468.025 273,466.5C 274.356,467.38 275.856,467.714 277.5,467.5 Z"/></g>
<g><path style="opacity:1" fill="#2c82fd" d="M 230.5,494.5 C 229.1,495.1 228.1,496.1 227.5,497.5C 226.292,498.234 224.959,498.567 223.5,498.5C 220.606,498.042 218.106,498.709 216,500.5C 215.107,499.919 214.107,499.585 213,499.5C 206.554,502.631 199.721,504.465 192.5,505C 191.944,505.383 191.611,505.883 191.5,506.5C 183.5,506.5 175.5,506.5 167.5,506.5C 140.498,506.667 113.498,506.5 86.5,506C 80.8837,503.592 74.217,502.092 66.5,501.5C 64.653,502.186 62.9863,503.186 61.5,504.5C 59.4317,504.033 57.4317,503.366 55.5,502.5C 54.8586,500.704 53.8586,499.204 52.5,498C 52.8333,497.667 53.1667,497.333 53.5,497C 52.2341,496.691 51.0674,496.191 50,495.5C 49.6667,495.833 49.3333,496.167 49,496.5C 46.0318,494.065 43.0318,492.398 40,491.5C 38.5945,489.636 38.0945,487.803 38.5,486C 44.1869,486.833 44.6869,485.666 40,482.5C 39.5172,481.552 39.3505,480.552 39.5,479.5C 37.712,479.215 36.0453,479.548 34.5,480.5C 35.7468,482.042 35.7468,483.542 34.5,485C 31.2106,485.746 28.7106,484.58 27,481.5C 26.6667,482.167 26.3333,482.833 26,483.5C 21.3103,479.869 21.3103,477.202 26,475.5C 32.7762,477.193 39.9429,477.86 47.5,477.5C 45.9493,480.619 44.9493,483.952 44.5,487.5C 45.5,487.5 46.5,487.5 47.5,487.5C 47.5,485.833 47.5,484.167 47.5,482.5C 92.836,483.019 138.169,483.685 183.5,484.5C 183.5,485.5 183.5,486.5 183.5,487.5C 196.837,487.333 210.171,487.5 223.5,488C 226.861,488.054 229.861,489.054 232.5,491C 231.177,491.816 230.511,492.983 230.5,494.5 Z"/></g>
<g><path style="opacity:0.013" fill="#fff3ff" d="M 685.5,470.5 C 688.048,473.996 689.381,477.996 689.5,482.5C 687.595,478.784 686.261,474.784 685.5,470.5 Z"/></g>
<g><path style="opacity:0.949" fill="#568ce0" d="M 13.5,470.5 C 15.649,472.046 17.8156,473.712 20,475.5C 20.6077,477.154 21.1077,478.821 21.5,480.5C 20.5,479.833 19.5,479.167 18.5,478.5C 16.86,475.851 15.1933,473.184 13.5,470.5 Z"/></g>
<g><path style="opacity:0.804" fill="#b98fd0" d="M 392.5,479.5 C 394.988,493.148 398.655,506.481 403.5,519.5C 396.569,507.238 392.902,493.905 392.5,479.5 Z"/></g>
<g><path style="opacity:0.82" fill="#5a8de1" d="M 238.5,492.5 C 235.164,494.731 231.497,496.397 227.5,497.5C 228.1,496.1 229.1,495.1 230.5,494.5C 233.112,493.629 235.779,492.963 238.5,492.5 Z"/></g>
<g><path style="opacity:0.029" fill="#e6f9fe" d="M 18.5,478.5 C 19.5,479.167 20.5,479.833 21.5,480.5C 32.2369,492.887 45.5702,501.221 61.5,505.5C 64.1667,506.5 66.8333,507.5 69.5,508.5C 52.6253,506.099 37.9586,499.099 25.5,487.5C 22.7366,484.748 20.4033,481.748 18.5,478.5 Z"/></g>
<g><path style="opacity:1" fill="#4586ea" d="M 223.5,498.5 C 213.403,502.968 202.736,505.634 191.5,506.5C 191.611,505.883 191.944,505.383 192.5,505C 199.721,504.465 206.554,502.631 213,499.5C 214.107,499.585 215.107,499.919 216,500.5C 218.106,498.709 220.606,498.042 223.5,498.5 Z"/></g>
<g><path style="opacity:0.804" fill="#c898d6" d="M 679.5,462.5 C 681.987,464.809 683.987,467.476 685.5,470.5C 686.261,474.784 687.595,478.784 689.5,482.5C 690.551,493.811 690.717,505.145 690,516.5C 689.721,519.457 688.887,522.123 687.5,524.5C 689.423,513.253 689.923,501.92 689,490.5C 688.333,489.833 687.667,489.167 687,488.5C 685.155,479.809 682.655,471.143 679.5,462.5 Z"/></g>
<g><path style="opacity:0.956" fill="#5d91ee" d="M 61.5,505.5 C 65.8967,505.425 70.23,505.925 74.5,507C 105.669,507.831 136.669,507.664 167.5,506.5C 175.5,506.5 183.5,506.5 191.5,506.5C 185.401,508.015 179.068,508.849 172.5,509C 138.153,509.785 103.819,509.618 69.5,508.5C 66.8333,507.5 64.1667,506.5 61.5,505.5 Z"/></g>
<g><path style="opacity:1" fill="#cb91dd" d="M 685.5,533.5 C 682.161,542.875 677.161,551.208 670.5,558.5C 670.489,554.19 672.323,550.857 676,548.5C 678.556,544.202 677.889,541.536 674,540.5C 673.333,537.833 673.333,535.167 674,532.5C 677.405,531.35 679.571,532.684 680.5,536.5C 682.029,535.237 683.695,534.237 685.5,533.5 Z"/></g>
<g><path style="opacity:0.02" fill="#fbebfd" d="M 415.5,542.5 C 418.851,544.854 421.518,547.854 423.5,551.5C 420.119,549.12 417.453,546.12 415.5,542.5 Z"/></g>
<g><path style="opacity:0.525" fill="#e5cbec" d="M 423.5,551.5 C 424.766,552.09 426.099,552.59 427.5,553C 430.83,557.816 435.163,561.316 440.5,563.5C 441.752,565.001 442.752,566.668 443.5,568.5C 435.583,564.245 428.916,558.578 423.5,551.5 Z"/></g>
<g><path style="opacity:0.022" fill="#fbecfd" d="M 689.5,482.5 C 697.785,518.477 687.785,548.311 659.5,572C 657.423,573.705 655.09,574.872 652.5,575.5C 658.77,570.899 664.437,565.566 669.5,559.5C 670.167,559.5 670.5,559.167 670.5,558.5C 677.161,551.208 682.161,542.875 685.5,533.5C 686.929,530.692 687.595,527.692 687.5,524.5C 688.887,522.123 689.721,519.457 690,516.5C 690.717,505.145 690.551,493.811 689.5,482.5 Z"/></g>
<g><path style="opacity:0.027" fill="#f8e8fa" d="M 449.5,572.5 C 453.098,573.632 456.431,575.299 459.5,577.5C 455.58,576.873 452.247,575.207 449.5,572.5 Z"/></g>
<g><path style="opacity:0.976" fill="#c996d8" d="M 669.5,559.5 C 664.437,565.566 658.77,570.899 652.5,575.5C 648.953,577.104 645.286,578.438 641.5,579.5C 640.575,580.357 639.908,581.357 639.5,582.5C 634.282,584.173 628.949,585.673 623.5,587C 620.854,587.497 618.187,587.664 615.5,587.5C 615.577,586.25 616.244,585.417 617.5,585C 628.514,583.497 638.848,579.997 648.5,574.5C 648.291,573.914 647.957,573.414 647.5,573C 649.333,571.167 651.167,569.333 653,567.5C 654.085,568.293 655.252,568.96 656.5,569.5C 660.277,565.384 664.61,562.05 669.5,559.5 Z"/></g>
<g><path style="opacity:0.012" fill="#fff0ff" d="M 459.5,577.5 C 461.153,577.66 462.486,578.326 463.5,579.5C 461.62,579.771 460.287,579.104 459.5,577.5 Z"/></g>
<g><path style="opacity:0.208" fill="#e8d1ed" d="M 652.5,575.5 C 648.653,578.593 644.32,580.926 639.5,582.5C 639.908,581.357 640.575,580.357 641.5,579.5C 645.286,578.438 648.953,577.104 652.5,575.5 Z"/></g>
<g><path style="opacity:0.129" fill="#f2dcf6" d="M 463.5,579.5 C 466.716,579.345 469.383,580.345 471.5,582.5C 468.458,582.267 465.792,581.267 463.5,579.5 Z"/></g>
<g><path style="opacity:1" fill="#cb9adb" d="M 443.5,568.5 C 447.553,569.35 451.553,570.516 455.5,572C 458.888,574.36 462.555,576.36 466.5,578C 476.756,581.895 487.423,584.229 498.5,585C 500.973,585.22 502.64,586.386 503.5,588.5C 502.167,588.5 500.833,588.5 499.5,588.5C 494.68,587.513 489.68,586.847 484.5,586.5C 480.667,584.003 476.333,582.67 471.5,582.5C 469.383,580.345 466.716,579.345 463.5,579.5C 462.486,578.326 461.153,577.66 459.5,577.5C 456.431,575.299 453.098,573.632 449.5,572.5C 447.147,571.66 445.147,570.326 443.5,568.5 Z"/></g>
<g><path style="opacity:0.02" fill="#f8e8fb" d="M 471.5,582.5 C 476.333,582.67 480.667,584.003 484.5,586.5C 479.84,585.991 475.507,584.658 471.5,582.5 Z"/></g>
<g><path style="opacity:0.006" fill="#fdeffe" d="M 639.5,582.5 C 635.055,585.057 630.389,587.057 625.5,588.5C 621.5,588.5 617.5,588.5 613.5,588.5C 613.842,587.662 614.508,587.328 615.5,587.5C 618.187,587.664 620.854,587.497 623.5,587C 628.949,585.673 634.282,584.173 639.5,582.5 Z"/></g>
<g><path style="opacity:0.024" fill="#fef0ff" d="M 484.5,586.5 C 489.68,586.847 494.68,587.513 499.5,588.5C 495.833,588.5 492.167,588.5 488.5,588.5C 487.167,587.833 485.833,587.167 484.5,586.5 Z"/></g>
</svg>
